#!OML:ASF F:\VICON\USERDATA\INSTALL\rory3\rory3.ASF
:FULLY-SPECIFIED
:DEGREES
651
root 2.63038 16.9628 7.33991 -7.53769 11.3201 8.21597
lowerback 6.23126 -14.5709 -13.1974
upperback 0.809081 -20.3325 4.29732
thorax 3.55174 -10.5908 11.0895
lowerneck -10.1616 1.08057 -11.0454
upperneck 25.3858 1.34342 8.86132
head 9.47809 0.483659 5.14152
rclavicle -2.5186e-013 7.15625e-014
rhumerus -70.0149 -30.5813 -28.0349
rradius 23.0568
rwrist -9.22836
rhand -17.0266 17.6735
rfingers 7.12502
rthumb 9.20971 -12.1053
lclavicle -2.5186e-013 7.15625e-014
lhumerus 24.4367 -69.8827 106.141
lradius 48.1318
lwrist -4.95238
lhand -9.20644 21.0503
lfingers 7.12502
lthumb 16.7477 -309.652
rfemur -44.4607 7.83175 26.1081
rtibia 47.0399
rfoot 19.8357 2.94376
rtoes 7.40041
lfemur 3.7932 8.91945 -36.6851
ltibia 38.4681
lfoot -17.7386 -10.3944
ltoes 16.1474
652
root 2.54827 16.9612 7.35193 -6.46335 9.40012 4.52224
lowerback 4.62293 -13.817 -9.91118
upperback 0.810796 -18.9923 5.60553
thorax 3.44594 -9.88564 10.7026
lowerneck -9.48398 0.686867 -11.0807
upperneck 24.5086 0.754405 8.89552
head 9.10981 0.220227 5.05364
rclavicle -9.74045e-014 6.52014e-014
rhumerus -68.1731 -29.1061 -31.5443
rradius 23.2207
rwrist -11.7663
rhand -17.517 16.597
rfingers 7.12502
rthumb 8.73643 -13.2022
lclavicle -9.74045e-014 6.52014e-014
lhumerus 25.2399 -71.2564 105.551
lradius 48.6571
lwrist -4.76098
lhand -8.82124 20.88
lfingers 7.12502
lthumb 17.1185 -309.854
rfemur -44.6977 12.3423 29.2049
rtibia 46.3201
rfoot 21.3118 0.776468
rtoes 9.41349
lfemur 1.00313 9.96345 -32.4747
ltibia 39.364
lfoot -17.8927 -10.3784
ltoes 14.4992
653
root 2.67225 16.9151 7.3557 -5.60656 9.60772 7.59982
lowerback 5.5093 -13.3591 -11.4858
upperback -0.308064 -18.5343 4.88497
thorax 1.87282 -9.50296 11.2011
lowerneck -8.5276 0.524523 -11.556
upperneck 24.3398 0.495161 8.95509
head 8.89926 0.048357 5.10986
rclavicle -9.64106e-014 1.74931e-014
rhumerus -66.9321 -27.0517 -33.1126
rradius 23.0747
rwrist -12.5493
rhand -17.142 16.0972
rfingers 7.12502
rthumb 9.09835 -13.6866
lclavicle -9.64106e-014 1.74931e-014
lhumerus 24.6366 -72.1251 106.265
lradius 49.3519
lwrist -4.465
lhand -8.82927 20.7015
lfingers 7.12502
lthumb 17.1108 -310.032
rfemur -44.1501 10.9152 25.5207
rtibia 46.4687
rfoot 23.5271 2.83749
rtoes 8.87594
lfemur 0.718945 10.2781 -36.5015
ltibia 39.6668
lfoot -18.304 -9.83663
ltoes 14.9468
654
root 2.67688 16.9302 7.4507 -5.41914 12.3912 7.25177
lowerback 6.46198 -13.9674 -11.6237
upperback -1.36832 -19.4839 5.44293
thorax 0.724767 -9.87231 12.1534
lowerneck -8.0125 0.406414 -12.0201
upperneck 24.9133 0.407616 8.58591
head 9.0191 -0.0964989 5.06577
rclavicle 4.08006e-014 -2.22639e-014
rhumerus -65.6787 -24.8563 -33.6967
rradius 22.7882
rwrist -12.5801
rhand -16.4752 16.0268
rfingers 7.12502
rthumb 9.74167 -13.7279
lclavicle 4.08006e-014 -2.22639e-014
lhumerus 24.7914 -72.7397 106.121
lradius 50.3511
lwrist -4.17109
lhand -8.28459 19.4235
lfingers 7.12502
lthumb 17.635 -311.356
rfemur -42.8761 10.4414 24.5052
rtibia 46.4277
rfoot 24.3037 3.43503
rtoes 0.941352
lfemur 1.22081 8.49817 -35.9791
ltibia 40.0776
lfoot -18.4143 -10.7498
ltoes 16.7129
655
root 2.69898 16.8981 7.47905 -5.27325 11.8954 7.61576
lowerback 6.05108 -13.2141 -11.5639
upperback -0.937093 -18.4137 5.05094
thorax 0.948717 -9.354 11.6824
lowerneck -8.17747 -0.0921621 -11.7406
upperneck 24.5619 -0.352088 8.80505
head 9.01503 -0.39054 5.01578
rclavicle -1.14401e-013 5.24792e-014
rhumerus -65.2294 -25.8387 -33.7991
rradius 22.5067
rwrist -11.7901
rhand -16.0651 15.726
rfingers 7.12502
rthumb 10.1374 -14.0098
lclavicle -1.14401e-013 5.24792e-014
lhumerus 30.0225 -74.9945 100.048
lradius 51.564
lwrist -3.8951
lhand -8.16568 18.6554
lfingers 7.12502
lthumb 17.7494 -312.135
rfemur -41.972 11.4789 23.622
rtibia 46.9728
rfoot 25.889 -3.28545
rtoes 20.9302
lfemur 1.21061 9.13895 -36.495
ltibia 39.8463
lfoot -18.2697 -10.6027
ltoes 18.2105
656
root 2.71409 16.9338 7.58287 -4.82396 15.141 6.39926
lowerback 4.51815 -13.9012 -10.0123
upperback -0.625696 -19.0759 5.01874
thorax 1.79538 -9.73536 10.3578
lowerneck -8.03042 -0.559797 -11.1572
upperneck 23.7503 -1.08061 8.80673
head 8.78889 -0.663054 4.81732
rclavicle 1.61413e-013 -1.27222e-014
rhumerus -65.0318 -27.2161 -33.3922
rradius 22.342
rwrist -10.7547
rhand -16.1968 14.8059
rfingers 7.12502
rthumb 10.0103 -14.9361
lclavicle 1.61413e-013 -1.27222e-014
lhumerus 35.0992 -76.9214 94.1733
lradius 52.7239
lwrist -3.7058
lhand -9.06967 18.9466
lfingers 7.12502
lthumb 16.8794 -311.767
rfemur -40.8526 10.2254 23.6578
rtibia 47.0692
rfoot 25.9296 -4.26864
rtoes 22.7846
lfemur 1.48083 6.83324 -35.1151
ltibia 40.0311
lfoot -18.5376 -11.4815
ltoes 18.2708
657
root 2.72836 16.918 7.65237 -4.57408 16.0572 6.05509
lowerback 3.87365 -13.7822 -9.47082
upperback -0.556593 -18.8298 4.94028
thorax 1.95793 -9.61021 9.87625
lowerneck -9.78784 -1.39824 -8.49647
upperneck 24.8596 -1.83931 5.5815
head 9.56828 -1.09474 3.18214
rclavicle 1.15394e-013 -2.22639e-014
rhumerus -64.3209 -27.4264 -33.8687
rradius 22.4441
rwrist -11.0283
rhand -16.6296 13.64
rfingers 7.12502
rthumb 9.59276 -16.1217
lclavicle 1.15394e-013 -2.22639e-014
lhumerus 38.3034 -77.9544 90.2158
lradius 53.7043
lwrist -4.13389
lhand -9.08014 17.9971
lfingers 7.12502
lthumb 16.8693 -312.716
rfemur -39.6147 10.4496 23.341
rtibia 47.1213
rfoot 25.448 -2.22087
rtoes 26.6902
lfemur 1.41275 6.48208 -34.7172
ltibia 40.2971
lfoot -18.919 -11.598
ltoes 16.5928
658
root 2.74043 16.8941 7.72679 -4.36024 17.0429 5.83741
lowerback 2.69442 -13.7449 -9.19991
upperback 0.11804 -18.6697 4.72474
thorax 3.11927 -9.59749 9.12652
lowerneck -8.15138 -1.36867 -10.7196
upperneck 22.7985 -2.29686 9.17071
head 8.62107 -1.14038 4.72491
rclavicle 1.55052e-014 2.54444e-014
rhumerus -63.3003 -28.9554 -33.9522
rradius 22.1427
rwrist -9.93243
rhand -16.5081 13.4222
rfingers 7.12502
rthumb 9.70995 -16.334
lclavicle 1.55052e-014 2.54444e-014
lhumerus 48.1809 -78.6331 79.1032
lradius 54.7155
lwrist -4.39959
lhand -8.62082 16.4994
lfingers 7.12502
lthumb 17.3114 -314.252
rfemur -38.2257 10.7119 22.9153
rtibia 46.9419
rfoot 22.8047 2.68357
rtoes 29.7687
lfemur 1.3973 6.20172 -34.3921
ltibia 40.699
lfoot -19.2627 -11.8405
ltoes 15.2562
659
root 2.77485 16.8754 7.80293 -4.27647 18.1312 5.8172
lowerback 3.07241 -13.8113 -8.91083
upperback -0.346277 -18.7748 4.75836
thorax 2.36307 -9.59273 9.19329
lowerneck -11.1505 -2.33839 -8.56666
upperneck 25.4785 -3.08815 5.73498
head 10.1615 -1.6481 3.11441
rclavicle -2.20005e-013 4.92986e-014
rhumerus -62.2997 -28.1977 -33.9856
rradius 22.0815
rwrist -9.06658
rhand -16.0578 13.432
rfingers 7.12502
rthumb 10.1444 -16.3034
lclavicle -2.20005e-013 4.92986e-014
lhumerus 48.2791 -78.6269 78.163
lradius 55.4111
lwrist -4.87177
lhand -8.51851 14.9535
lfingers 7.12502
lthumb 17.4099 -315.806
rfemur -36.6272 10.3496 22.3982
rtibia 46.4873
rfoot 17.8971 8.304
rtoes 29.7032
lfemur 1.70561 5.87078 -34.3818
ltibia 41.03
lfoot -19.4137 -12.0522
ltoes 15.6958
660
root 2.79926 16.8602 7.82477 -3.66042 18.3328 5.44922
lowerback 3.01799 -13.4871 -8.06067
upperback -0.88703 -18.2992 4.90103
thorax 1.49781 -9.28315 9.08553
lowerneck -7.72432 -1.96532 -11.1454
upperneck 23.2174 -3.13477 9.17418
head 8.78957 -1.58443 4.73005
rclavicle -5.99833e-014 -1.90833e-014
rhumerus -60.9238 -25.8009 -36.6149
rradius 23.2389
rwrist -11.5646
rhand -16.0685 12.49
rfingers 7.12502
rthumb 10.1341 -17.2459
lclavicle -5.99833e-014 -1.90833e-014
lhumerus 47.4704 -78.8857 78.203
lradius 55.9391
lwrist -5.33241
lhand -8.20066 13.7684
lfingers 7.12502
lthumb 17.7158 -317.019
rfemur -36.2071 10.8194 22.3204
rtibia 45.5543
rfoot 13.6599 13.8172
rtoes 18.4116
lfemur 0.805816 5.87281 -34.146
ltibia 41.4483
lfoot -19.0736 -11.8746
ltoes 16.8162
661
root 2.80426 16.8632 7.89674 -3.59612 19.9341 5.24971
lowerback 3.07661 -13.5814 -8.03878
upperback -1.12609 -18.4287 4.96327
thorax 1.25503 -9.32884 9.1764
lowerneck -7.06205 -2.18653 -11.3526
upperneck 22.9673 -3.53406 9.46357
head 8.6335 -1.77417 4.82257
rclavicle -1.91579e-014 -1.59028e-014
rhumerus -61.6449 -29.0583 -31.5022
rradius 21.6064
rwrist -5.79446
rhand -14.8207 13.872
rfingers 7.12502
rthumb 11.3377 -15.8016
lclavicle -1.91579e-014 -1.59028e-014
lhumerus 47.7122 -79.1018 77.1793
lradius 56.439
lwrist -5.29636
lhand -8.07333 13.7792
lfingers 7.12502
lthumb 17.8383 -317.019
rfemur -35.1089 10.5895 22.1506
rtibia 44.3278
rfoot 11.4495 13.1621
rtoes 20.8309
lfemur 1.10582 5.1987 -33.7061
ltibia 41.7205
lfoot -18.8853 -12.3135
ltoes 17.4819
662
root 2.82149 16.87 7.9625 -3.72614 20.9406 4.80542
lowerback 3.4776 -13.5149 -7.66509
upperback -1.51861 -18.3465 5.13672
thorax 0.549517 -9.2409 9.36176
lowerneck -6.7131 -2.44645 -11.4773
upperneck 23.1763 -3.91976 9.40807
head 8.68874 -1.98152 4.79399
rclavicle 3.89804e-014 4.77083e-015
rhumerus -60.3239 -27.1425 -32.9807
rradius 22.3307
rwrist -7.54903
rhand -14.3788 13.9871
rfingers 7.12502
rthumb 11.7639 -15.6625
lclavicle 3.89804e-014 4.77083e-015
lhumerus 45.5336 -79.1766 78.6832
lradius 56.5738
lwrist -5.38863
lhand -7.4917 12.6776
lfingers 7.12502
lthumb 18.3979 -318.172
rfemur -34.1872 10.5679 22.3708
rtibia 43.0209
rfoot 11.2448 9.25265
rtoes 33.1574
lfemur 1.28218 4.92602 -33.1222
ltibia 42.0871
lfoot -18.978 -12.4475
ltoes 17.3871
663
root 2.83274 16.8748 8.02071 -3.87577 21.6085 3.99093
lowerback 3.71078 -13.3008 -6.86593
upperback -1.85777 -18.0259 5.33324
thorax -0.176948 -9.03376 9.34239
lowerneck -6.24431 -2.82615 -11.4938
upperneck 23.1919 -4.45196 9.17996
head 8.66885 -2.26506 4.66684
rclavicle 1.43622e-014 0
rhumerus -59.2198 -25.471 -34.4072
rradius 23.2334
rwrist -10.0911
rhand -14.8653 13.1647
rfingers 7.12502
rthumb 11.2947 -16.5112
lclavicle 1.43622e-014 0
lhumerus 43.4521 -79.4498 80.0591
lradius 56.4813
lwrist -5.46409
lhand -6.53778 11.5315
lfingers 7.12502
lthumb 19.3153 -319.408
rfemur -33.51 10.5788 23.2044
rtibia 41.9606
rfoot 7.05713 12.2283
rtoes 9.76293
lfemur 1.19739 4.76681 -32.1983
ltibia 42.4281
lfoot -19.0907 -12.4609
ltoes 17.1644
664
root 2.83655 16.8617 8.07459 -3.90493 22.3172 3.50828
lowerback 1.83633 -13.0018 -6.42578
upperback -0.403244 -17.5247 4.94989
thorax 2.01976 -8.90988 8.08602
lowerneck -7.03577 -3.48298 -10.9768
upperneck 22.1082 -5.40407 9.72971
head 8.55647 -2.58576 4.64133
rclavicle -4.90998e-014 6.36111e-015
rhumerus -57.4439 -26.1884 -36.9823
rradius 24.2971
rwrist -12.3122
rhand -15.4986 12.4172
rfingers 7.12502
rthumb 10.6839 -17.2911
lclavicle -4.90998e-014 6.36111e-015
lhumerus 59.4094 -79.7533 62.4972
lradius 56.7369
lwrist -4.51509
lhand -6.25016 12.4709
lfingers 7.12502
lthumb 19.5919 -318.496
rfemur -32.9502 10.2935 23.8808
rtibia 41.262
rfoot 7.27197 9.32826
rtoes 16.7186
lfemur 1.08125 4.43109 -31.6463
ltibia 42.8935
lfoot -19.3629 -12.437
ltoes 16.8777
665
root 2.84168 16.8423 8.11748 -3.98388 22.6022 3.09207
lowerback 2.53017 -12.7606 -6.72831
upperback -0.772823 -17.2508 5.58412
thorax 1.49067 -8.76354 9.12271
lowerneck -7.13003 -3.77093 -11.5059
upperneck 22.2671 -5.67718 9.52343
head 8.67513 -2.77315 4.63382
rclavicle 1.59748e-013 -3.18055e-015
rhumerus -56.3037 -26.842 -35.1936
rradius 24.1927
rwrist -10.7403
rhand -15.5612 12.5043
rfingers 7.12502
rthumb 10.6235 -17.2071
lclavicle 1.59748e-013 -3.18055e-015
lhumerus 57.5894 -79.1457 63.8184
lradius 56.5343
lwrist -3.85142
lhand -6.05109 13.5825
lfingers 7.12502
lthumb 19.7832 -317.404
rfemur -32.4917 9.80689 24.6584
rtibia 40.8442
rfoot 6.61806 8.04889
rtoes 19.7068
lfemur 0.888451 4.39563 -31.2022
ltibia 43.466
lfoot -19.7458 -12.2695
ltoes 16.1174
